<svg width="140" height="85" viewBox="0 0 140 85" fill="none" xmlns="http://www.w3.org/2000/svg">
<rect width="140" height="85" rx="12" fill="#040068"/>
<g clip-path="url(#clip0_872_1176)">
<path d="M34.4989 47.988V58.9574C34.4989 64.2624 32.7672 66.8699 28.5293 66.8699C24.7469 66.8699 23.4253 64.7568 23.4253 61.7447V47.988H17V62.9586C17 67.9939 20.9645 72.1748 26.9797 72.1748C30.7165 72.1748 33.1317 70.5565 34.5445 67.9939L34.5189 71.5903H40.9698V47.9878H34.4989V47.988ZM52.3169 54.3719C52.3169 53.2479 53.3194 52.6187 55.5979 52.6187C57.6941 52.6187 59.836 53.158 62.1601 54.282L64.5297 49.6515C62.4335 48.3927 59.3803 47.4035 55.9625 47.4035C49.8562 47.4035 46.0739 50.2808 46.0739 54.8665C46.0739 63.4982 59.0157 60.9357 59.0157 64.7121C59.0157 66.0159 57.5574 66.7801 54.7777 66.7801C52.2712 66.7801 49.8561 66.1057 47.2586 64.5772L44.8433 69.073C47.1218 70.7363 50.5851 72.175 54.8232 72.175C60.9295 72.175 65.3499 69.3426 65.3499 64.3075C65.3499 55.5409 52.3169 58.1034 52.3169 54.372V54.3719ZM86.9501 47.988V58.9574C86.9501 64.2624 85.2185 66.8699 80.9805 66.8699C77.1981 66.8699 75.8766 64.7568 75.8766 61.7447V47.988H69.4511V62.9586C69.4511 67.9939 73.4157 72.1748 79.431 72.1748C83.1677 72.1748 85.583 70.5565 86.9956 67.9939L87.0205 71.5903H93.4211V47.9878H86.9501V47.988ZM113.107 47.4035C109.28 47.4035 106.819 48.932 105.315 51.4947V38.637H98.8896V71.5906H105.221L105.178 67.9941C106.591 70.6015 109.052 72.1751 112.788 72.1751C119.396 72.1751 125.229 67.3648 125.229 59.6321C125.229 52.304 119.943 47.4036 113.108 47.4036L113.107 47.4035ZM111.923 66.6452C108.323 66.6452 105.315 64.2175 105.315 59.8568C105.315 55.5407 108.277 52.8884 111.968 52.8884C115.796 52.8884 118.667 55.3161 118.667 59.6768C118.667 63.723 116.115 66.6452 111.923 66.6452Z" fill="white"/>
<path fill-rule="evenodd" clip-rule="evenodd" d="M17 42.2941V32.8155L46.3475 12L62.3465 23.2993V17.9989H69.3004V28.5273L75.8659 32.9482V42.248L46.4094 21.3961L17 42.2941Z" fill="white"/>
<path fill-rule="evenodd" clip-rule="evenodd" d="M40.6766 29.6852H46.3704V35.3023H40.6766V29.6852Z" fill="white"/>
<path fill-rule="evenodd" clip-rule="evenodd" d="M48.0835 29.6852H53.777V35.3023H48.0835V29.6852Z" fill="white"/>
<path fill-rule="evenodd" clip-rule="evenodd" d="M40.6766 37.1414H46.3704V42.7585H40.6766V37.1414Z" fill="white"/>
<path fill-rule="evenodd" clip-rule="evenodd" d="M48.0835 37.1414H53.777V42.7585H48.0835V37.1414Z" fill="white"/>
</g>
<defs>
<clipPath id="clip0_872_1176">
<rect width="109" height="60" fill="white" transform="translate(16 12)"/>
</clipPath>
</defs>
</svg>
